<svg xmlns="http://www.w3.org/2000/svg" version="1.1" xmlns:xlink="http://www.w3.org/1999/xlink" xmlns:svgjs="http://svgjs.dev/svgjs" width="2000" height="1500" viewBox="0 0 2000 1500"><rect width="2000" height="1500" fill="#ffffff"></rect><g transform="matrix(0.75,0,0,0.75,248.25159850557736,216.9108870967741)"><svg viewBox="0 0 350 248" data-background-color="#ffffff" preserveAspectRatio="xMidYMid meet" height="1417" width="2000" xmlns="http://www.w3.org/2000/svg" xmlns:xlink="http://www.w3.org/1999/xlink"><g id="tight-bounds" transform="matrix(1,0,0,1,0.40796034869862297,0.4000000000000057)"><svg viewBox="0 0 349.18407930260275 247.2" height="247.2" width="349.18407930260275"><g><svg viewBox="0 0 395.52 280.0028689603295" height="247.2" width="349.18407930260275"><g transform="matrix(1,0,0,1,0,207.74994319613737)"><svg viewBox="0 0 395.52 72.25292576419214" height="72.25292576419214" width="395.52"><g id="textblocktransform"><svg viewBox="0 0 395.52 72.25292576419214" height="72.25292576419214" width="395.52" id="textblock"><g><svg viewBox="0 0 395.52 72.25292576419214" height="72.25292576419214" width="395.52"><g transform="matrix(1,0,0,1,0,0)"><svg width="395.52" viewBox="4.2 -37.94 268.34000000000003 49.019999999999996" height="72.25292576419214" data-palette-color="#f9d1d1"><path d="M25.63-27.54L15.97-13.82 26.9 0 20.17 0 12.16-10.55 12.16-17.33 18.99-27.54 25.63-27.54ZM10.16 0L4.2 0 4.2-37.94 10.16-37.94 10.16 0ZM37.69-8.3L37.69-8.3Q37.69-6.1 38.6-5.03 39.5-3.96 41.21-3.76L41.21-3.76 41.21 0.2Q41.01 0.24 40.57 0.24L40.57 0.24Q38.91 0.24 37.38-0.2 35.84-0.63 34.67-1.61 33.49-2.59 32.83-4.2 32.18-5.81 32.18-8.15L32.18-8.15Q32.18-10.4 33.13-12.04 34.08-13.67 35.57-14.72 37.06-15.77 38.96-16.28 40.87-16.8 42.82-16.8L42.82-16.8 44.97-16.8 44.97-13.33 43.89-13.33Q42.92-13.33 41.84-13.13 40.77-12.94 39.84-12.4 38.91-11.87 38.3-10.86 37.69-9.86 37.69-8.3ZM52.88-8.54L52.88-8.15Q52.88-7.76 52.93-7.01 52.98-6.25 53.12-5.47 53.27-4.69 53.59-4.05 53.9-3.42 54.44-3.22L54.44-3.22 52.88 0.05Q52.24 0.05 51.54-0.24 50.83-0.54 50.17-1.07 49.51-1.61 49.05-2.27 48.58-2.93 48.34-3.71L48.34-3.71Q47.85-2.49 46.41-1.54 44.97-0.59 43.21-0.15L43.21-0.15 43.21-3.86Q44.38-4.1 45.33-4.81 46.29-5.52 46.97-6.49L46.97-6.49 46.97-16.8Q46.97-19.19 46.73-20.61 46.48-22.02 45.9-22.68 45.31-23.34 44.46-23.51 43.6-23.68 42.43-23.68L42.43-23.68Q41.35-23.68 40.4-23.41 39.45-23.14 38.64-22.78 37.84-22.41 37.23-21.97 36.62-21.53 36.33-21.29L36.33-21.29 34.13-24.66Q34.62-25.2 35.59-25.76 36.57-26.32 37.84-26.76 39.11-27.2 40.6-27.47 42.09-27.73 43.7-27.73L43.7-27.73Q45.16-27.73 46.56-27.44 47.95-27.15 49.09-26.46 50.24-25.78 51.1-24.63 51.95-23.49 52.29-21.78L52.29-21.78Q52.63-20.07 52.76-18.33 52.88-16.6 52.88-14.89L52.88-14.89 52.88-8.54ZM72.21 0.24L72.21 0.24Q69.48 0.24 67.43-0.95 65.38-2.15 64.01-4.15 62.64-6.15 62.01-8.74 61.37-11.33 61.37-14.16L61.37-14.16Q61.37-17.97 62.42-20.56 63.47-23.14 65.11-24.78 66.74-26.42 68.77-27.1 70.8-27.78 72.75-27.78L72.75-27.78Q74.26-27.78 75.63-27.44 77-27.1 78.12-26.46L78.12-26.46 78.12-21.29Q77.34-22.17 76.29-22.71 75.24-23.24 74.02-23.24L74.02-23.24Q72.55-23.24 71.36-22.49 70.16-21.73 69.33-20.46 68.5-19.19 68.06-17.48 67.62-15.77 67.62-13.87L67.62-13.87Q67.62-11.91 68.09-10.18 68.55-8.45 69.4-7.18 70.26-5.91 71.45-5.15 72.65-4.39 74.12-4.39L74.12-4.39Q75.34-4.39 76.31-4.91 77.29-5.42 78.12-6.25L78.12-6.25 78.12-1.17Q76.95-0.59 75.43-0.17 73.92 0.24 72.21 0.24ZM80.76-27.54L86.03-27.54 85.98 0Q85.79 2.98 84.79 5.08 83.78 7.18 82.22 8.54 80.66 9.91 78.61 10.5 76.56 11.08 74.21 11.08L74.21 11.08Q71.48 11.08 68.82 10.13 66.16 9.18 64.4 6.93L64.4 6.93 67.82 3.56Q68.31 4.39 69.06 4.93 69.82 5.47 70.62 5.76 71.43 6.05 72.24 6.18 73.04 6.3 73.68 6.3L73.68 6.3Q76.7 6.3 78.41 4.54 80.12 2.78 80.12-1.46L80.12-1.46 80.12-24.76 80.76-27.54ZM108.34-23.19L108.34-27.78Q110.98-27.54 113.1-26.37 115.23-25.2 116.74-23.34 118.25-21.48 119.06-19.09 119.87-16.7 119.87-14.11L119.87-14.11Q119.87-12.94 119.72-11.77L119.72-11.77 102.97-11.77 102.97-16.06 114.25-16.06Q114.25-17.33 113.84-18.51 113.42-19.68 112.61-20.68 111.81-21.68 110.73-22.36 109.66-23.05 108.34-23.19L108.34-23.19ZM108.15-4.59L108.15-4.59Q108.68-4.59 109.49-4.71 110.3-4.83 111.2-5.15 112.1-5.47 113.01-5.96 113.91-6.45 114.59-7.13L114.59-7.13 116.74-3.86Q115.13-1.86 112.98-0.83 110.83 0.2 107.51 0.2L107.51 0.2Q104.83 0.2 102.48-0.9 100.14-2 98.48-3.91 96.82-5.81 95.84-8.35 94.87-10.89 94.87-13.82L94.87-13.82Q94.87-16.6 95.77-19.09 96.67-21.58 98.23-23.46 99.8-25.34 101.87-26.51 103.95-27.69 106.34-27.83L106.34-27.83 106.34-23.14Q104.53-22.8 103.36-21.68 102.19-20.56 101.53-19.12 100.87-17.68 100.6-16.16 100.33-14.65 100.33-13.57L100.33-13.57Q100.33-11.67 100.8-10.03 101.26-8.4 102.24-7.2 103.22-6.01 104.66-5.3 106.1-4.59 108.15-4.59ZM127.97-27.54L133.29-27.54 133.93-24.76 133.93 10.84 127.97 10.84 127.97-27.54ZM152.04-19.19L152.04-19.19Q152.63-16.94 152.63-14.16L152.63-14.16Q152.63-11.38 151.97-8.76 151.31-6.15 149.97-4.15 148.62-2.15 146.6-0.95 144.57 0.24 141.84 0.24L141.84 0.24Q140.13 0.24 138.59-0.15 137.05-0.54 135.93-1.17L135.93-1.17 135.93-6.25Q137.54-4.35 139.88-4.35L139.88-4.35Q141.35-4.35 142.54-5.08 143.74-5.81 144.59-7.06 145.45-8.3 145.94-10.03 146.43-11.77 146.43-13.72L146.43-13.72Q146.43-15.63 145.99-17.33 145.55-19.04 144.74-20.36 143.94-21.68 142.79-22.46 141.64-23.24 140.13-23.24L140.13-23.24Q138.86-23.24 137.81-22.73 136.76-22.22 135.93-21.29L135.93-21.29 135.93-26.46Q137.05-27.1 138.42-27.44 139.78-27.78 141.25-27.78L141.25-27.78Q142.86-27.78 144.52-27.34 146.18-26.9 147.62-25.88 149.06-24.85 150.23-23.19 151.41-21.53 152.04-19.19ZM164.25-8.3L164.25-8.3Q164.25-6.1 165.15-5.03 166.05-3.96 167.76-3.76L167.76-3.76 167.76 0.2Q167.57 0.24 167.13 0.24L167.13 0.24Q165.47 0.24 163.93-0.2 162.39-0.63 161.22-1.61 160.05-2.59 159.39-4.2 158.73-5.81 158.73-8.15L158.73-8.15Q158.73-10.4 159.68-12.04 160.63-13.67 162.12-14.72 163.61-15.77 165.51-16.28 167.42-16.8 169.37-16.8L169.37-16.8 171.52-16.8 171.52-13.33 170.45-13.33Q169.47-13.33 168.4-13.13 167.32-12.94 166.39-12.4 165.47-11.87 164.86-10.86 164.25-9.86 164.25-8.3ZM179.43-8.54L179.43-8.15Q179.43-7.76 179.48-7.01 179.53-6.25 179.68-5.47 179.82-4.69 180.14-4.05 180.46-3.42 180.99-3.22L180.99-3.22 179.43 0.05Q178.8 0.05 178.09-0.24 177.38-0.54 176.72-1.07 176.06-1.61 175.6-2.27 175.13-2.93 174.89-3.71L174.89-3.71Q174.4-2.49 172.96-1.54 171.52-0.59 169.76-0.15L169.76-0.15 169.76-3.86Q170.93-4.1 171.89-4.81 172.84-5.52 173.52-6.49L173.52-6.49 173.52-16.8Q173.52-19.19 173.28-20.61 173.03-22.02 172.45-22.68 171.86-23.34 171.01-23.51 170.15-23.68 168.98-23.68L168.98-23.68Q167.91-23.68 166.96-23.41 166-23.14 165.2-22.78 164.39-22.41 163.78-21.97 163.17-21.53 162.88-21.29L162.88-21.29 160.68-24.66Q161.17-25.2 162.15-25.76 163.12-26.32 164.39-26.76 165.66-27.2 167.15-27.47 168.64-27.73 170.25-27.73L170.25-27.73Q171.72-27.73 173.11-27.44 174.5-27.15 175.65-26.46 176.79-25.78 177.65-24.63 178.5-23.49 178.84-21.78L178.84-21.78Q179.19-20.07 179.31-18.33 179.43-16.6 179.43-14.89L179.43-14.89 179.43-8.54ZM188.75-27.54L194.03-27.54 194.66-24.76 194.66 0 188.75 0 188.75-27.54ZM209.26-24.51L209.26-24.51Q210.09-23.68 210.56-22.58 211.02-21.48 211.24-20.29 211.46-19.09 211.51-17.87 211.56-16.65 211.56-15.48L211.56-15.48 211.56-0.98 211.56 0 205.6 0 205.6-14.99Q205.6-16.65 205.45-18.16 205.31-19.68 204.77-20.85 204.23-22.02 203.31-22.68 202.38-23.34 200.72-23.34L200.72-23.34Q200.03-23.34 198.89-23.12 197.74-22.9 196.66-22.41L196.66-22.41 196.66-26.17Q197.98-26.86 199.52-27.34 201.06-27.83 202.52-27.83L202.52-27.83Q204.72-27.83 206.24-26.93 207.75-26.03 209.26-24.51ZM236.7-37.94L242.66-37.94 242.66 0 237.04 0 236.7-3.27 236.7-37.94ZM217.95-14.16L217.95-14.16Q217.95-17.97 219-20.56 220.05-23.14 221.71-24.76 223.37-26.37 225.4-27.08 227.42-27.78 229.38-27.78L229.38-27.78Q230.89-27.78 232.26-27.44 233.63-27.1 234.7-26.46L234.7-26.46 234.7-21.29Q233.87-22.17 232.84-22.71 231.82-23.24 230.55-23.24L230.55-23.24Q229.04-23.24 227.86-22.49 226.69-21.73 225.89-20.41 225.08-19.09 224.64-17.38 224.2-15.67 224.2-13.72L224.2-13.72Q224.2-11.77 224.69-10.08 225.18-8.4 226.01-7.13 226.84-5.86 228.03-5.13 229.23-4.39 230.65-4.39L230.65-4.39Q233.04-4.39 234.7-6.3L234.7-6.3 234.7-1.22Q233.53-0.59 231.99-0.17 230.45 0.24 228.74 0.24L228.74 0.24Q226.79 0.24 224.91-0.46 223.03-1.17 221.56-2.78L221.56-2.78Q219.71-4.88 218.83-7.98 217.95-11.08 217.95-14.16ZM255.79-8.3L255.79-8.3Q255.79-6.1 256.69-5.03 257.6-3.96 259.31-3.76L259.31-3.76 259.31 0.2Q259.11 0.24 258.67 0.24L258.67 0.24Q257.01 0.24 255.47-0.2 253.94-0.63 252.76-1.61 251.59-2.59 250.93-4.2 250.27-5.81 250.27-8.15L250.27-8.15Q250.27-10.4 251.23-12.04 252.18-13.67 253.67-14.72 255.16-15.77 257.06-16.28 258.96-16.8 260.92-16.8L260.92-16.8 263.07-16.8 263.07-13.33 261.99-13.33Q261.02-13.33 259.94-13.13 258.87-12.94 257.94-12.4 257.01-11.87 256.4-10.86 255.79-9.86 255.79-8.3ZM270.98-8.54L270.98-8.15Q270.98-7.76 271.02-7.01 271.07-6.25 271.22-5.47 271.37-4.69 271.68-4.05 272-3.42 272.54-3.22L272.54-3.22 270.98 0.05Q270.34 0.05 269.63-0.24 268.93-0.54 268.27-1.07 267.61-1.61 267.14-2.27 266.68-2.93 266.44-3.71L266.44-3.71Q265.95-2.49 264.51-1.54 263.07-0.59 261.31-0.15L261.31-0.15 261.31-3.86Q262.48-4.1 263.43-4.81 264.38-5.52 265.07-6.49L265.07-6.49 265.07-16.8Q265.07-19.19 264.82-20.61 264.58-22.02 263.99-22.68 263.41-23.34 262.55-23.51 261.7-23.68 260.53-23.68L260.53-23.68Q259.45-23.68 258.5-23.41 257.55-23.14 256.74-22.78 255.94-22.41 255.33-21.97 254.72-21.53 254.42-21.29L254.42-21.29 252.23-24.66Q252.71-25.2 253.69-25.76 254.67-26.32 255.94-26.76 257.21-27.2 258.7-27.47 260.19-27.73 261.8-27.73L261.8-27.73Q263.26-27.73 264.65-27.44 266.04-27.15 267.19-26.46 268.34-25.78 269.19-24.63 270.05-23.49 270.39-21.78L270.39-21.78Q270.73-20.07 270.85-18.33 270.98-16.6 270.98-14.89L270.98-14.89 270.98-8.54Z" opacity="1" transform="matrix(1,0,0,1,0,0)" fill="#f9d1d1" class="wordmark-text-0" data-fill-palette-color="primary" id="text-0"></path></svg></g></svg></g></svg></g></svg></g><g transform="matrix(1,0,0,1,110.94221010463873,0)"><svg viewBox="0 0 173.63557979072252 173.63557979072252" height="173.63557979072252" width="173.63557979072252"><g><svg></svg></g><g id="icon-0"><svg viewBox="0 0 173.63557979072252 173.63557979072252" height="173.63557979072252" width="173.63557979072252"><g><path d="M0 86.818c0-47.948 38.87-86.818 86.818-86.818 47.948 0 86.818 38.87 86.818 86.818 0 47.948-38.87 86.818-86.818 86.818-47.948 0-86.818-38.87-86.818-86.818zM86.818 167.12c44.35 0 80.302-35.952 80.302-80.302 0-44.35-35.952-80.302-80.302-80.302-44.35 0-80.302 35.952-80.302 80.302 0 44.35 35.952 80.302 80.302 80.302z" data-fill-palette-color="accent" fill="#bd804a" stroke="transparent"></path><ellipse rx="85.94961199640764" ry="85.94961199640764" cx="86.81778989536126" cy="86.81778989536126" fill="#bd804a" stroke="transparent" stroke-width="0" fill-opacity="1" data-fill-palette-color="accent"></ellipse></g><g transform="matrix(1,0,0,1,38.67764875984914,38.67769260292263)"><svg viewBox="0 0 96.28028227102423 96.28019458487725" height="96.28019458487725" width="96.28028227102423"><g><svg xmlns="http://www.w3.org/2000/svg" xmlns:xlink="http://www.w3.org/1999/xlink" version="1.1" x="0" y="0" viewBox="4.999955080012604 4.999992126560006 90.00008983997478 90.00000787344" style="enable-background:new 0 0 100 100;" xml:space="preserve" height="96.28019458487725" width="96.28028227102423" class="icon-dxe-0" data-fill-palette-color="quaternary" id="dxe-0"><path d="M45 55C45 49.477 40.523 50 35 50S25 50.977 25 56.5 29.477 65 35 65 45 60.523 45 55M39.979 58.203C39.984 58.135 40 58.069 40 58 40 56.342 38.658 55 37 55S34 56.342 34 58C34 58.762 34.292 59.448 34.759 59.978 31.518 59.791 29 58.34 29 55 29 51.409 31.909 52 35.5 52S42 49.909 42 53.5C42 55.353 41.222 57.02 39.979 58.203M65 50C59.477 50 55 49.477 55 55S59.477 65 65 65 75 62.023 75 56.5 70.523 50 65 50M65.24 59.978C65.708 59.448 66 58.762 66 58A3 3 0 1 0 60 58C60 58.069 60.016 58.135 60.021 58.203A6.47 6.47 0 0 1 58 53.5C58 49.909 60.909 52 64.5 52S71 51.409 71 55C71 58.34 68.482 59.791 65.24 59.978M59.629 82.071L60.371 83.928A6 6 0 0 1 58.114 84.366C56.796 84.366 55.459 83.934 54.205 83.086 52.41 81.871 50.922 79.87 50 77.653 49.078 79.87 47.59 81.871 45.795 83.086 44.542 83.935 43.204 84.366 41.885 84.366A6.1 6.1 0 0 1 39.628 83.928L40.371 82.071C42.114 82.769 43.673 82.107 44.673 81.43 46.711 80.05 48.317 77.337 48.819 74.667 45.455 73.797 42.889 69.483 42.889 67.721 42.889 65.757 46.444 64.166 49.999 64.166S57.11 65.758 57.11 67.721C57.11 69.484 54.544 73.798 51.179 74.667 51.682 77.337 53.287 80.05 55.325 81.43 56.328 82.107 57.886 82.771 59.629 82.071M95 20C95 11.716 88.284 5 80 5A14.9 14.9 0 0 0 69.417 9.396C63.538 6.58 56.954 5 50 5S36.461 6.579 30.583 9.396A14.9 14.9 0 0 0 20 5C11.716 5 5 11.716 5 20 5 24.138 6.684 27.874 9.396 30.583A44.8 44.8 0 0 0 5 50C5 74.853 25.147 95 50 95S95 74.853 95 50A44.8 44.8 0 0 0 90.604 30.583 14.9 14.9 0 0 0 95 20M79 12C84.522 12 89 16.478 89 22A9.9 9.9 0 0 1 88.109 26.08 45.2 45.2 0 0 0 75.242 12.744 9.9 9.9 0 0 1 79 12M21 12C22.332 12 23.597 12.27 24.758 12.744A45.2 45.2 0 0 0 11.891 26.08 9.9 9.9 0 0 1 11 22C11 16.478 15.478 12 21 12M50 90C27.909 90 10 72.092 10 50 10 44.228 11.232 38.609 13.433 33.451A46 46 0 0 1 14.216 31.717C14.487 31.151 14.77 30.59 15.065 30.036 18.242 24.076 22.765 18.903 28.205 15.068 28.917 14.567 29.645 14.089 30.386 13.633L30.51 13.556A39 39 0 0 1 32.824 12.248C38.029 9.546 43.852 8 50 8 56.149 8 61.973 9.546 67.177 12.249A38 38 0 0 1 69.491 13.557L69.61 13.631A42 42 0 0 1 71.798 15.072C77.238 18.908 81.762 24.083 84.939 30.045A42 42 0 0 1 85.796 31.743C86.067 32.309 86.324 32.881 86.57 33.459 88.769 38.614 90 44.23 90 50 90 72.092 72.092 90 50 90" fill="#ffffff" data-fill-palette-color="quaternary"></path></svg></g></svg></g></svg></g></svg></g><g></g></svg></g><defs></defs></svg><rect width="349.18407930260275" height="247.2" fill="none" stroke="none" visibility="hidden"></rect></g></svg></g></svg>